<svg width="9" height="4" viewBox="0 0 9 4" fill="none" xmlns="http://www.w3.org/2000/svg">
<path d="M7.70694 0C8.14494 0 8.50793 0.358487 8.42165 0.787898C8.27024 1.54146 7.90355 2.24141 7.35797 2.79857C6.62592 3.54616 5.63009 3.97715 4.584 3.99912C3.53791 4.02109 2.52486 3.6323 1.76206 2.91611C1.19357 2.38235 0.797811 1.69841 0.614893 0.951872C0.510659 0.526463 0.858278 0.15305 1.29588 0.134659C1.73349 0.116268 2.09133 0.465873 2.24995 0.874136C2.37937 1.20727 2.58237 1.51064 2.84773 1.75979C3.30806 2.19199 3.91941 2.42662 4.55069 2.41336C5.18198 2.4001 5.78293 2.14001 6.22471 1.68886C6.47937 1.42879 6.66945 1.11716 6.78478 0.778886C6.92611 0.364323 7.26895 0 7.70694 0Z" fill="#AFFF00"/>
</svg>
