<svg width="19" height="20" viewBox="0 0 19 20" fill="none" xmlns="http://www.w3.org/2000/svg">
<path d="M12.4546 8.27121C12.7662 7.71755 13.0261 7.21795 13.1863 6.8377C13.9644 4.99124 13.195 2.86733 11.3141 2.00096C9.43321 1.13459 7.54449 2.03293 6.71558 3.76746C5.13046 2.67977 3.01597 2.83951 1.84989 4.53688C0.683817 6.23425 1.04979 8.45171 2.6469 9.66172C3.37174 10.2109 4.80529 11.0202 6.15495 11.7404M13.081 9.79164C12.7292 7.90168 11.1211 6.51947 9.09635 6.89515C7.07159 7.27083 5.76239 9.09759 6.03611 11.0825C6.25603 12.6773 7.46993 16.419 7.93866 17.8283C8.00263 18.0207 8.03461 18.1168 8.09793 18.1839C8.15309 18.2423 8.22644 18.2847 8.30461 18.3032C8.39434 18.3245 8.49361 18.3041 8.69215 18.2634C10.1471 17.9646 13.9944 17.145 15.4855 16.5381C17.3413 15.7827 18.2991 13.7368 17.5817 11.7942C16.8644 9.85157 14.8936 9.15128 13.081 9.79164Z" stroke="#94979C" stroke-width="1.66667" stroke-linecap="round" stroke-linejoin="round"/>
</svg>
