<svg width="17" height="18" viewBox="0 0 17 18" fill="none" xmlns="http://www.w3.org/2000/svg">
<path d="M1 7.80421C1 7.32558 1 7.08627 1.06169 6.86588C1.11633 6.67065 1.20614 6.48704 1.32669 6.32405C1.46278 6.14005 1.65168 5.99312 2.02949 5.69927L7.68141 1.30333C7.97418 1.07562 8.12057 0.961766 8.28221 0.918001C8.42484 0.879384 8.57516 0.879384 8.71779 0.918001C8.87943 0.961766 9.02582 1.07562 9.31859 1.30333L14.9705 5.69927C15.3483 5.99312 15.5372 6.14005 15.6733 6.32405C15.7939 6.48704 15.8837 6.67065 15.9383 6.86588C16 7.08627 16 7.32558 16 7.80421V13.8333C16 14.7667 16 15.2335 15.8183 15.59C15.6586 15.9036 15.4036 16.1585 15.09 16.3183C14.7335 16.5 14.2668 16.5 13.3333 16.5H3.66667C2.73325 16.5 2.26654 16.5 1.91002 16.3183C1.59641 16.1585 1.34144 15.9036 1.18166 15.59C1 15.2335 1 14.7667 1 13.8333V7.80421Z" fill="black"/>
<path d="M5.27168 10.6667C5.64172 12.1043 6.9468 13.1667 8.5 13.1667C10.0532 13.1667 11.3583 12.1043 11.7283 10.6667M7.68141 1.30333L2.02949 5.69927C1.65168 5.99312 1.46278 6.14005 1.32669 6.32405C1.20614 6.48704 1.11633 6.67065 1.06169 6.86588C1 7.08627 1 7.32558 1 7.80421V13.8333C1 14.7667 1 15.2335 1.18166 15.59C1.34144 15.9036 1.59641 16.1585 1.91002 16.3183C2.26654 16.5 2.73325 16.5 3.66667 16.5H13.3333C14.2668 16.5 14.7335 16.5 15.09 16.3183C15.4036 16.1585 15.6586 15.9036 15.8183 15.59C16 15.2335 16 14.7667 16 13.8333V7.80421C16 7.32558 16 7.08627 15.9383 6.86588C15.8837 6.67065 15.7939 6.48704 15.6733 6.32405C15.5372 6.14005 15.3483 5.99312 14.9705 5.69927L9.31859 1.30333C9.02582 1.07562 8.87943 0.961766 8.71779 0.918001C8.57516 0.879384 8.42484 0.879384 8.28221 0.918001C8.12057 0.961766 7.97418 1.07562 7.68141 1.30333Z" stroke="black" stroke-width="1.66667" stroke-linecap="round" stroke-linejoin="round"/>
</svg>
