<svg width="20" height="24" viewBox="0 0 20 24" fill="none" xmlns="http://www.w3.org/2000/svg">
<path fill-rule="evenodd" clip-rule="evenodd" d="M1.61742 16.7404C1.66892 16.7371 1.7219 16.7435 1.77387 16.7608C1.90094 16.8031 1.99369 16.9013 2.03394 17.0189L2.80644 17.5016C3.41446 17.8816 4.24061 17.7061 4.64178 17.1125L8.8877 10.8299C7.31493 10.5557 5.98537 9.52016 5.32833 8.09164L1.3251 15.04C1.00092 15.6027 1.1375 16.3261 1.61742 16.7404ZM1.85205 17.8781C1.56293 18.9107 1.44392 19.8751 1.55926 20.6836C1.72894 21.873 2.38774 22.6222 3.70526 22.8837C4.71659 23.0844 5.43621 23.03 5.97995 22.7716C6.38875 22.5773 6.65653 22.3196 7.11119 21.7472C7.12618 21.7284 7.19225 21.645 7.21004 21.6226C7.24891 21.5737 7.28038 21.5344 7.311 21.4966C8.24078 20.3479 9.12148 20.0027 10.8485 20.5095C11.2737 20.6343 11.7101 20.7741 12.1812 20.9348C12.7666 21.1345 14.7035 21.8381 14.6126 21.8058C15.4943 22.1197 16.102 22.3093 16.6364 22.4261C17.8544 22.6924 18.5292 22.5359 18.906 21.8775C19.0191 21.6798 19.2712 21.6112 19.4689 21.7244C19.6666 21.8375 19.7352 22.0896 19.622 22.2873C19.0275 23.326 17.9902 23.5666 16.4602 23.2321C15.8835 23.106 15.248 22.9077 14.3359 22.583C14.42 22.6129 12.4912 21.9122 11.9149 21.7156C11.4544 21.5586 11.0291 21.4223 10.6161 21.3012C9.84339 21.0744 9.29562 21.0665 8.88036 21.2293C8.55525 21.3567 8.30855 21.5754 7.95225 22.0156C7.92342 22.0512 7.8934 22.0888 7.85594 22.1359C7.83854 22.1578 7.77253 22.2411 7.75718 22.2604C7.22939 22.9248 6.88778 23.2535 6.33412 23.5167C5.61583 23.8581 4.71861 23.9258 3.54468 23.6929C1.87092 23.3608 0.960044 22.3249 0.742531 20.8001C0.598628 19.7914 0.760002 18.6323 1.12957 17.4079C0.312964 16.7469 0.0743745 15.5582 0.610252 14.6281L5.06417 6.89755C5.25053 6.57409 5.73644 6.64481 5.82288 7.00796C6.2399 8.75997 7.79831 10.0325 9.62628 10.0758C9.95241 10.0836 10.1409 10.4489 9.95827 10.7192L5.32532 17.5744C4.67553 18.5359 3.35403 18.8166 2.36926 18.2013L1.85205 17.8781ZM10.7128 9.63963C8.04346 9.63963 5.87898 7.48202 5.87898 4.81981C5.87898 2.15761 8.04346 0 10.7128 0C13.3822 0 15.5467 2.15761 15.5467 4.81981C15.5467 7.48202 13.3822 9.63963 10.7128 9.63963ZM10.7128 8.81463C12.9272 8.81463 14.7217 7.02579 14.7217 4.81981C14.7217 2.61383 12.9272 0.825 10.7128 0.825C8.49851 0.825 6.70398 2.61383 6.70398 4.81981C6.70398 7.02579 8.49851 8.81463 10.7128 8.81463ZM14.2011 4.62819C14.2011 4.85601 14.0164 5.04069 13.7886 5.04069C13.5607 5.04069 13.3761 4.85601 13.3761 4.62819C13.3761 3.16302 12.184 1.97473 10.7128 1.97473C10.485 1.97473 10.3003 1.79005 10.3003 1.56223C10.3003 1.33442 10.485 1.14973 10.7128 1.14973C12.639 1.14973 14.2011 2.7068 14.2011 4.62819Z" fill="white"/>
</svg>
