<svg width="19" height="20" viewBox="0 0 19 20" fill="none" xmlns="http://www.w3.org/2000/svg">
<path d="M7 14.1667L2.83334 18.3334M12 14.1667L16.1667 18.3334M9.5 1.66669V3.33335M9.5 18.3334V14.1667M3.83334 14.1667H15.1667C16.1001 14.1667 16.5668 14.1667 16.9233 13.985C17.2369 13.8252 17.4919 13.5703 17.6517 13.2567C17.8333 12.9002 17.8333 12.4334 17.8333 11.5V6.00002C17.8333 5.0666 17.8333 4.59989 17.6517 4.24337C17.4919 3.92977 17.2369 3.6748 16.9233 3.51501C16.5668 3.33335 16.1001 3.33335 15.1667 3.33335H3.83334C2.89992 3.33335 2.43321 3.33335 2.07669 3.51501C1.76308 3.6748 1.50812 3.92977 1.34833 4.24337C1.16667 4.59989 1.16667 5.0666 1.16667 6.00002V11.5C1.16667 12.4334 1.16667 12.9002 1.34833 13.2567C1.50812 13.5703 1.76308 13.8252 2.07669 13.985C2.43321 14.1667 2.89992 14.1667 3.83334 14.1667Z" stroke="#94979C" stroke-width="1.66667" stroke-linecap="round" stroke-linejoin="round"/>
</svg>
