<svg width="19" height="16" viewBox="0 0 19 16" fill="none" xmlns="http://www.w3.org/2000/svg">
<path d="M6.16667 4.66665V3.83331M6.16667 8.41665V7.58331M6.16667 12.1666V11.3333M5.16667 14.6666H13.8333C15.2335 14.6666 15.9335 14.6666 16.4683 14.3942C16.9387 14.1545 17.3212 13.772 17.5609 13.3016C17.8333 12.7668 17.8333 12.0668 17.8333 10.6666V5.33331C17.8333 3.93318 17.8333 3.23312 17.5609 2.69834C17.3212 2.22793 16.9387 1.84548 16.4683 1.6058C15.9335 1.33331 15.2335 1.33331 13.8333 1.33331H5.16667C3.76654 1.33331 3.06647 1.33331 2.5317 1.6058C2.06129 1.84548 1.67884 2.22793 1.43916 2.69834C1.16667 3.23312 1.16667 3.93318 1.16667 5.33331V10.6666C1.16667 12.0668 1.16667 12.7668 1.43916 13.3016C1.67884 13.772 2.06129 14.1545 2.5317 14.3942C3.06647 14.6666 3.76654 14.6666 5.16667 14.6666Z" stroke="#94979C" stroke-width="1.66667" stroke-linecap="round" stroke-linejoin="round"/>
</svg>
